<?xml version="1.0" encoding="UTF-8" standalone="no"?>
<!DOCTYPE svg PUBLIC "-//W3C//DTD SVG 1.1//EN" "http://www.w3.org/Graphics/SVG/1.1/DTD/svg11.dtd">
<svg width="100%" height="100%" viewBox="0 0 690 659" version="1.1" xmlns="http://www.w3.org/2000/svg" xmlns:xlink="http://www.w3.org/1999/xlink" xml:space="preserve" xmlns:serif="http://www.serif.com/" style="fill-rule:evenodd;clip-rule:evenodd;stroke-linejoin:round;stroke-miterlimit:2;">
    <g transform="matrix(1,0,0,1,-98.5977,-102.044)">
        <path d="M445.28,760.335C409.269,760.202 370.454,760.864 335.947,758.746C303.229,756.737 263.526,751.464 238.239,747.625C220.009,744.857 197.99,740.475 184.221,735.709C173.792,732.099 162.773,726.441 155.624,719.027C148.474,711.613 142.551,701.573 141.325,691.224C139.206,673.35 145.032,627.674 142.914,611.786C141.972,604.724 132.198,602.057 128.615,595.899C124.378,588.617 120.512,577.61 117.494,568.096C113.124,554.326 104.185,532.15 102.4,513.284C99.62,483.892 96.31,427.888 100.812,391.744C104.912,358.824 118.023,323.693 129.409,296.419C139.557,272.111 152.976,248.624 169.128,228.103C185.28,207.581 210.038,187.193 226.323,173.291C238.895,162.559 252.139,152.258 266.836,144.693C284.842,135.426 313.969,124.569 334.358,117.685C352.248,111.644 370.353,104.946 389.17,103.386C416.311,101.135 469.932,101.93 497.205,104.18C516.154,105.744 534.821,110.739 552.811,116.89C573.333,123.907 602.195,137.014 620.333,146.282C634.855,153.702 649.073,162.104 661.641,172.497C675.41,183.883 690.85,199.101 702.948,214.598C718.968,235.12 744.124,266.233 757.76,295.625C771.397,325.017 780.599,358.188 784.769,390.95C789.403,427.359 787.814,484.421 785.563,514.078C784.135,532.906 775.899,555.253 771.265,568.89C768.026,578.42 762.262,589.279 757.76,595.899C754.284,601.011 745.08,602.482 744.256,608.609C742.138,624.364 747.169,672.291 745.05,690.429C743.883,700.427 738.563,710.289 731.546,717.438C724.529,724.588 713.233,729.702 702.948,733.326C689.047,738.224 666.676,743.61 648.136,746.83C622.981,751.199 584.264,757.393 552.017,759.54C518.208,761.791 480.86,760.465 445.28,760.335ZM445.749,735.205C481.544,735.272 519.433,736.086 553.123,733.578C584.939,731.21 625.316,724.563 647.889,720.156C661.86,717.429 679.274,712.835 688.561,707.141C695.937,702.619 705.779,692.974 703.61,685.992C701.44,679.01 687.086,666.713 675.546,665.249C648.296,661.792 569.527,662.944 540.108,665.249C525.704,666.378 512.91,675.069 499.029,679.078C483.303,683.619 464.064,692.567 445.749,692.499C427.311,692.432 404.738,683.213 388.401,678.671C374.647,674.847 361.965,666.332 347.729,665.249C318.31,663.012 239.203,661.928 211.885,665.249C200.495,666.634 186.126,678.535 183.821,685.178C181.516,691.822 191.093,700.847 198.056,705.108C207.14,710.666 224.46,715.7 238.322,718.53C261.233,723.207 302.865,730.546 335.528,733.171C370.099,735.951 409.483,735.137 445.749,735.205Z"/>
    </g>
</svg>
