<?xml version="1.0" encoding="UTF-8" standalone="no"?>
<!DOCTYPE svg PUBLIC "-//W3C//DTD SVG 1.1//EN" "http://www.w3.org/Graphics/SVG/1.1/DTD/svg11.dtd">
<svg width="100%" height="100%" viewBox="0 0 512 512" version="1.1" xmlns="http://www.w3.org/2000/svg" xmlns:xlink="http://www.w3.org/1999/xlink" xml:space="preserve" xmlns:serif="http://www.serif.com/" style="fill-rule:evenodd;clip-rule:evenodd;stroke-linejoin:round;stroke-miterlimit:2;">
    <path d="M359.632,288L396.624,368C399.552,374.363 398.207,381.918 393.264,386.88L271.168,469.28C255.079,480.94 233.177,480.94 217.088,469.28L102.688,387.36C97.799,382.129 96.766,374.322 100.128,368L136.432,288L359.632,288Z"/>
    <path d="M369.278,208L126.928,208L114.08,162.4C112.278,156.115 111.628,149.556 112.16,143.04L112.16,46.08C112.16,38.18 118.66,31.68 126.56,31.68L129.6,31.68C137.5,31.68 144,38.18 144,46.08L144,82.4C144,90.651 150.789,97.44 159.04,97.44L337.264,97.44C341.252,97.443 345.082,95.859 347.904,93.04C350.724,90.218 352.313,86.39 352.32,82.4L352.32,46.4C352.32,38.5 358.82,32 366.72,32L369.76,32C377.66,32 384.16,38.5 384.16,46.4L384.16,144C384.688,150.304 384.032,156.64 382.24,162.72L382.224,162.72L369.278,208Z"/>
    <g transform="matrix(16,0,0,16,0,0)">
        <g>
            <clipPath id="_clip1">
                <rect x="0" y="0" width="32" height="32"/>
            </clipPath>
            <g clip-path="url(#_clip1)">
                <path d="M5.205,10.696C5.035,10.102 4.968,9.484 5.008,8.868L5.008,2.88C5.008,1.289 6.317,-0.02 7.908,-0.02L8.098,-0.02C9.689,-0.02 10.998,1.289 10.998,2.88L10.998,4.09L20.02,4.09L20.02,2.9C20.02,1.309 21.329,-0 22.92,-0L23.11,0C24.701,-0 26.01,1.309 26.01,2.9L26.01,8.925C26.05,9.533 25.983,10.144 25.81,10.729L24.094,16.731L26.606,22.164C27.137,23.319 26.893,24.69 25.996,25.591L25.859,25.729L18.091,30.971C16.391,32.183 14.093,32.175 12.401,30.953L5.093,25.721L4.957,25.576C4.089,24.647 3.889,23.268 4.457,22.131L6.906,16.733L5.205,10.696ZM23.89,10.17C24.002,9.79 24.043,9.394 24.01,9L24.01,2.9C24.01,2.406 23.604,2 23.11,2L22.92,2C22.426,2 22.02,2.406 22.02,2.9L22.02,5.15C22.02,5.399 21.92,5.639 21.744,5.815C21.568,5.991 21.328,6.09 21.079,6.09L9.94,6.09C9.424,6.09 9,5.666 9,5.15L9,2.88C9,2.386 8.594,1.98 8.1,1.98L7.91,1.98C7.416,1.98 7.01,2.386 7.01,2.88L7.01,8.94C6.977,9.347 7.017,9.757 7.13,10.15L7.933,13L23.08,13L23.079,13.003L23.889,10.17L23.89,10.17ZM22.54,14.888C22.527,14.925 22.515,14.962 22.505,15L8.495,15L8.777,16L22.223,16L22.54,14.888ZM22.477,18L8.527,18L6.258,23C6.048,23.395 6.112,23.883 6.418,24.21L13.568,29.33C14.574,30.059 15.942,30.059 16.948,29.33L24.579,24.18C24.888,23.87 24.972,23.398 24.789,23L22.477,18Z" style="fill-rule:nonzero;"/>
            </g>
        </g>
    </g>
</svg>
